<svg width="128" height="96" viewBox="0 0 128 96" fill="none" xmlns="http://www.w3.org/2000/svg">
<path d="M90.7246 70.8799L108.088 88.5599" stroke="#45DB61" stroke-width="8" stroke-miterlimit="10" stroke-linecap="round"/>
<path d="M60.8365 7.44002C79.4236 7.44002 94.474 22.5334 94.474 41.1734C94.474 59.8134 79.4236 74.9067 60.8365 74.9067C42.2495 74.9067 27.199 59.8134 27.199 41.1734C27.199 22.5334 42.2495 7.44002 60.8365 7.44002ZM60.8365 2.10669C39.3511 2.10669 21.8809 19.6267 21.8809 41.1734C21.8809 62.72 39.3511 80.24 60.8365 80.24C82.322 80.24 99.7922 62.72 99.7922 41.1734C99.7922 19.6267 82.322 2.10669 60.8365 2.10669Z" fill="#45DB61"/>
<path d="M60.8361 62.0267C72.3203 62.0267 81.6302 52.6904 81.6302 41.1734C81.6302 29.6564 72.3203 20.3201 60.8361 20.3201C49.3518 20.3201 40.042 29.6564 40.042 41.1734C40.042 52.6904 49.3518 62.0267 60.8361 62.0267Z" fill="#45DB61"/>
<path d="M69.8239 45.5201C69.7973 49.2267 67.1116 51.8934 62.8836 52.4534V55.8134H58.9216V52.4267C54.5607 51.7334 51.9016 48.9867 51.875 45.0401L56.555 45.0934C56.7145 47.2801 58.443 48.7734 61.1818 48.7734C63.3889 48.7734 65.0109 47.8134 65.0109 46.0534C65.0109 44.1601 63.2027 43.7867 59.4534 43.0401C55.6775 42.3467 52.3802 41.1201 52.3802 36.5867C52.3802 33.0934 54.9064 30.5067 58.9216 29.9467V26.5601H62.8836V29.9734C66.8723 30.6401 69.3186 33.1734 69.3984 36.8534H64.7184C64.5057 34.9601 63.0698 33.6534 60.7298 33.6534C58.6823 33.6534 57.2198 34.5067 57.2198 36.2401C57.2198 38.0534 58.9748 38.4534 62.6709 39.1467C66.5 39.8401 69.877 41.0134 69.8505 45.5201H69.8239Z" fill="white"/>
</svg>
