<svg width="128" height="96" viewBox="0 0 128 96" fill="none" xmlns="http://www.w3.org/2000/svg">
<path d="M30.5067 65.4663C30.0267 67.173 30.8534 69.333 32.6134 70.5596L49.2267 83.7063C50.6401 84.6663 54.8001 84.613 56.3734 84.053L33.1201 65.4663H30.4801H30.5067Z" fill="#45DB61"/>
<path d="M51.3067 30.6399C48.0534 31.8399 45.4134 31.9732 43.6534 31.0132C42.8 30.5599 42.24 29.8665 41.8667 29.2532L52.9867 21.2799L57.4667 18.0532L65.1467 12.5599C66.5867 11.5199 68.48 11.2799 70.1334 11.8932L104.133 24.7199C104.427 24.8265 104.747 24.8799 105.067 24.8799H113.84V59.3332H105.253C104.827 59.3332 104.4 59.4399 104.027 59.6265L101.36 61.0132C100.96 60.2399 100.48 59.4665 99.8667 58.7999L69.4134 24.3465C69.4134 24.3465 57.2 28.4265 51.28 30.6132L51.3067 30.6399Z" fill="#45DB61"/>
<path d="M96.6402 63.4664C96.4268 63.0664 96.1868 62.6931 95.8935 62.3464L67.8135 30.5864C65.7335 31.2264 61.1202 32.7198 53.1468 35.6531C48.2935 37.4398 44.2135 37.4398 40.9868 35.6531C36.9868 33.4131 36.0802 29.3064 35.9735 28.8531C35.7602 27.8398 36.1868 26.7731 37.0402 26.1598L51.5468 15.7598L47.1468 14.2664C45.4668 13.6798 43.6002 13.9998 42.1868 15.0931L30.2935 24.3731C29.8135 24.7464 29.2535 24.9331 28.6402 24.9331H16.1602V60.1598H34.0268C34.6402 60.1598 35.2268 60.3731 35.6802 60.7464L61.6002 81.4664L63.5735 83.0398C63.5735 83.0398 63.8135 83.1731 63.9468 83.2531C65.3068 84.1864 66.9868 84.3998 68.5602 83.8931L90.8535 72.4264L94.3202 70.6131C95.7868 69.8398 96.8002 68.4798 97.0935 66.8531C97.1468 66.6398 97.1202 66.3998 97.1468 66.1864C97.2002 65.2264 97.0135 64.2931 96.5868 63.4664H96.6402Z" fill="#45DB61"/>
</svg>
