<svg width="97" height="96" viewBox="0 0 97 96" fill="none" xmlns="http://www.w3.org/2000/svg">
<path d="M62.8928 40.4399C62.8928 40.4399 55.8528 35.2399 48.2728 31.9199C40.6928 35.2399 33.6528 40.4399 33.6528 40.4399C32.9328 48.6599 33.7128 56.3399 33.7128 56.3399C41.6728 61.5999 48.2728 64.7399 48.2728 64.7399C48.2728 64.7399 54.8728 61.5799 62.8328 56.3399C62.8328 56.3399 63.6128 48.6599 62.8928 40.4399Z" fill="#45DB61"/>
<path d="M76.7727 78.98C79.6557 78.98 81.9927 76.643 81.9927 73.76C81.9927 70.8771 79.6557 68.54 76.7727 68.54C73.8898 68.54 71.5527 70.8771 71.5527 73.76C71.5527 76.643 73.8898 78.98 76.7727 78.98Z" fill="#45DB61"/>
<path d="M14.7327 61.5999C17.6156 61.5999 19.9527 59.2628 19.9527 56.3799C19.9527 53.497 17.6156 51.1599 14.7327 51.1599C11.8498 51.1599 9.5127 53.497 9.5127 56.3799C9.5127 59.2628 11.8498 61.5999 14.7327 61.5999Z" fill="#45DB61"/>
<path d="M58.8528 21.96C61.7357 21.96 64.0728 19.6229 64.0728 16.74C64.0728 13.8571 61.7357 11.52 58.8528 11.52C55.9699 11.52 53.6328 13.8571 53.6328 16.74C53.6328 19.6229 55.9699 21.96 58.8528 21.96Z" fill="#45DB61"/>
<path d="M48.0728 91.52C56.6221 91.52 63.5528 72.0354 63.5528 48C63.5528 23.9645 56.6221 4.47998 48.0728 4.47998C39.5234 4.47998 32.5928 23.9645 32.5928 48C32.5928 72.0354 39.5234 91.52 48.0728 91.52Z" stroke="#45DB61" stroke-width="4" stroke-miterlimit="10"/>
<path d="M85.9489 70.1C90.2236 62.696 76.8148 46.9517 55.9995 34.9339C35.1842 22.9162 14.8448 19.176 10.5701 26.58C6.29539 33.984 19.7042 49.7284 40.5195 61.7461C61.3348 73.7638 81.6742 77.504 85.9489 70.1Z" stroke="#45DB61" stroke-width="4" stroke-miterlimit="10"/>
<path d="M56.3794 61.7123C77.1947 49.6946 90.6035 33.9502 86.3288 26.5462C82.0541 19.1423 61.7147 22.8824 40.8994 34.9002C20.0841 46.9179 6.67528 62.6623 10.95 70.0662C15.2246 77.4702 35.5641 73.73 56.3794 61.7123Z" stroke="#45DB61" stroke-width="4" stroke-miterlimit="10"/>
<path d="M55.0928 51.26C55.0728 54.04 53.0528 56.04 49.8728 56.46V58.98H46.8928V56.44C43.6128 55.92 41.6128 53.86 41.5928 50.9L45.1128 50.94C45.2328 52.58 46.5328 53.7 48.5928 53.7C50.2528 53.7 51.4728 52.98 51.4728 51.66C51.4728 50.24 50.1128 49.96 47.2928 49.4C44.4528 48.88 41.9728 47.96 41.9728 44.56C41.9728 41.94 43.8728 40 46.8928 39.58V37.04H49.8728V39.6C52.8728 40.1 54.7128 42 54.7728 44.76H51.2528C51.0928 43.34 50.0128 42.36 48.2528 42.36C46.7128 42.36 45.6128 43 45.6128 44.3C45.6128 45.66 46.9328 45.96 49.7128 46.48C52.5928 47 55.1328 47.88 55.1128 51.26H55.0928Z" fill="white"/>
</svg>
